<svg width="200" height="200" viewBox="0 0 200 200" xmlns="http://www.w3.org/2000/svg">
  <!-- Network/Connected nodes pattern -->
  <defs>
    <radialGradient id="nodeGradient" cx="50%" cy="50%" r="50%">
      <stop offset="0%" style="stop-color:#667eea;stop-opacity:1" />
      <stop offset="100%" style="stop-color:#764ba2;stop-opacity:1" />
    </radialGradient>
  </defs>
  
  <!-- Center nodes -->
  <circle cx="100" cy="100" r="4" fill="#000"/>
  <circle cx="70" cy="100" r="4" fill="#000"/>
  <circle cx="130" cy="100" r="4" fill="#000"/>
  <circle cx="100" cy="70" r="4" fill="#000"/>
  <circle cx="100" cy="130" r="4" fill="#000"/>
  
  <!-- Inner ring -->
  <circle cx="85" cy="85" r="4" fill="#000"/>
  <circle cx="115" cy="85" r="4" fill="#000"/>
  <circle cx="85" cy="115" r="4" fill="#000"/>
  <circle cx="115" cy="115" r="4" fill="#000"/>
  
  <!-- Middle ring -->
  <circle cx="50" cy="70" r="4" fill="#000"/>
  <circle cx="150" cy="70" r="4" fill="#000"/>
  <circle cx="50" cy="130" r="4" fill="#000"/>
  <circle cx="150" cy="130" r="4" fill="#000"/>
  <circle cx="70" cy="50" r="4" fill="#000"/>
  <circle cx="130" cy="50" r="4" fill="#000"/>
  <circle cx="70" cy="150" r="4" fill="#000"/>
  <circle cx="130" cy="150" r="4" fill="#000"/>
  
  <!-- Outer ring -->
  <circle cx="30" cy="60" r="4" fill="#000"/>
  <circle cx="170" cy="60" r="4" fill="#000"/>
  <circle cx="30" cy="140" r="4" fill="#000"/>
  <circle cx="170" cy="140" r="4" fill="#000"/>
  <circle cx="60" cy="30" r="4" fill="#000"/>
  <circle cx="140" cy="30" r="4" fill="#000"/>
  <circle cx="60" cy="170" r="4" fill="#000"/>
  <circle cx="140" cy="170" r="4" fill="#000"/>
  <circle cx="100" cy="20" r="4" fill="#000"/>
  <circle cx="100" cy="180" r="4" fill="#000"/>
  <circle cx="20" cy="100" r="4" fill="#000"/>
  <circle cx="180" cy="100" r="4" fill="#000"/>
  
  <!-- Connection lines (sample) -->
  <line x1="100" y1="100" x2="70" y2="100" stroke="#000" stroke-width="1"/>
  <line x1="100" y1="100" x2="130" y2="100" stroke="#000" stroke-width="1"/>
  <line x1="100" y1="100" x2="100" y2="70" stroke="#000" stroke-width="1"/>
  <line x1="100" y1="100" x2="100" y2="130" stroke="#000" stroke-width="1"/>
  <line x1="100" y1="100" x2="85" y2="85" stroke="#000" stroke-width="1"/>
  <line x1="100" y1="100" x2="115" y2="85" stroke="#000" stroke-width="1"/>
  <line x1="100" y1="100" x2="85" y2="115" stroke="#000" stroke-width="1"/>
  <line x1="100" y1="100" x2="115" y2="115" stroke="#000" stroke-width="1"/>
  
  <line x1="70" y1="100" x2="50" y2="70" stroke="#000" stroke-width="1"/>
  <line x1="70" y1="100" x2="50" y2="130" stroke="#000" stroke-width="1"/>
  <line x1="130" y1="100" x2="150" y2="70" stroke="#000" stroke-width="1"/>
  <line x1="130" y1="100" x2="150" y2="130" stroke="#000" stroke-width="1"/>
  <line x1="100" y1="70" x2="70" y2="50" stroke="#000" stroke-width="1"/>
  <line x1="100" y1="70" x2="130" y2="50" stroke="#000" stroke-width="1"/>
  <line x1="100" y1="130" x2="70" y2="150" stroke="#000" stroke-width="1"/>
  <line x1="100" y1="130" x2="130" y2="150" stroke="#000" stroke-width="1"/>
  
  <!-- More outer connections -->
  <line x1="50" y1="70" x2="30" y2="60" stroke="#000" stroke-width="1"/>
  <line x1="150" y1="70" x2="170" y2="60" stroke="#000" stroke-width="1"/>
  <line x1="50" y1="130" x2="30" y2="140" stroke="#000" stroke-width="1"/>
  <line x1="150" y1="130" x2="170" y2="140" stroke="#000" stroke-width="1"/>
  <line x1="70" y1="50" x2="60" y2="30" stroke="#000" stroke-width="1"/>
  <line x1="130" y1="50" x2="140" y2="30" stroke="#000" stroke-width="1"/>
  <line x1="70" y1="150" x2="60" y2="170" stroke="#000" stroke-width="1"/>
  <line x1="130" y1="150" x2="140" y2="170" stroke="#000" stroke-width="1"/>
  
  <line x1="100" y1="70" x2="100" y2="20" stroke="#000" stroke-width="1"/>
  <line x1="100" y1="130" x2="100" y2="180" stroke="#000" stroke-width="1"/>
  <line x1="70" y1="100" x2="20" y2="100" stroke="#000" stroke-width="1"/>
  <line x1="130" y1="100" x2="180" y2="100" stroke="#000" stroke-width="1"/>
  
  <!-- Cross connections -->
  <line x1="85" y1="85" x2="70" y2="50" stroke="#000" stroke-width="1"/>
  <line x1="115" y1="85" x2="130" y2="50" stroke="#000" stroke-width="1"/>
  <line x1="85" y1="115" x2="70" y2="150" stroke="#000" stroke-width="1"/>
  <line x1="115" y1="115" x2="130" y2="150" stroke="#000" stroke-width="1"/>
  <line x1="85" y1="85" x2="50" y2="70" stroke="#000" stroke-width="1"/>
  <line x1="115" y1="85" x2="150" y2="70" stroke="#000" stroke-width="1"/>
  <line x1="85" y1="115" x2="50" y2="130" stroke="#000" stroke-width="1"/>
  <line x1="115" y1="115" x2="150" y2="130" stroke="#000" stroke-width="1"/>
</svg>
